# xmcd
#
# Track frame offsets: 
#        150
#        19322
#        31965
#        50407
#        71277
#        86437
#        96970
#        118467
#        137025
#        154315
#        166722
#        187455
#
# Disc length: 2978 seconds
#
# Revision: 0
# Processed by: cddbd v1.4PL0 Copyright (c) Steve Scherf et al.
# Submitted via: ExactAudioCopy v0.90a11
#
DISCID=a60ba00c
DTITLE=Hootie and The Blowfish - Musical Chairs
DYEAR=1900
DGENRE=
TTITLE0=I Will Wait
TTITLE1=Wishing
TTITLE2=Las Vegas Nights
TTITLE3=Only Lonely
TTITLE4=Answer Man
TTITLE5=Michelle Post
TTITLE6=Bluesy Revolution
TTITLE7=Home Again
TTITLE8=One By One
TTITLE9=Desert Mountain Showdown
TTITLE10=What's Going On Here
TTITLE11=What Do You Want From Me Now
EXTD=
EXTT0=
EXTT1=
EXTT2=
EXTT3=
EXTT4=
EXTT5=
EXTT6=
EXTT7=
EXTT8=
EXTT9=
EXTT10=
EXTT11=
PLAYORDER=
